<?xml version="1.0" encoding="iso-8859-1"?>
<!-- Uploaded to: SVG Repo, www.svgrepo.com, Generator: SVG Repo Mixer Tools -->
<svg height="800px" width="800px" version="1.1" id="Layer_1" xmlns="http://www.w3.org/2000/svg" xmlns:xlink="http://www.w3.org/1999/xlink" 
	 viewBox="0 0 512.32 512.32" xml:space="preserve">
<g transform="translate(0 1)">
	<path style="fill:#FFE100;" d="M211.093,343.221L211.093,343.221C138.56,362.847,63.467,319.327,43.84,246.794L8.853,114.527
		l27.307,6.827c76.8,19.627,158.72-2.56,215.893-58.027l20.48-19.627l34.987,132.267
		C327.147,248.501,284.48,323.594,211.093,343.221"/>
	<path style="fill:#FFFFFF;" d="M69.44,249.354l-34.133-125.44l0,0L8,117.087l34.987,132.267
		c17.92,64.853,80.213,106.667,145.067,99.84C132.587,344.074,83.947,305.674,69.44,249.354"/>
	<path style="fill:#FFE100;" d="M486.72,238.261c-59.733,15.36-121.173,7.68-174.08-19.627
		c-3.413,57.173-42.667,108.373-100.693,124.587c-3.413,0.853-6.827,1.707-10.24,2.56c5.973,54.613,44.373,102.4,100.693,116.907
		c72.533,19.627,147.627-23.893,167.253-96.427l34.133-132.267L486.72,238.261z"/>
	<path style="fill:#FFA800;" d="M487.573,238.261c-3.413,0.853-6.827,1.707-10.24,2.56l-33.28,125.44
		c-15.36,56.32-64,95.573-118.613,100.693c64.853,5.973,127.147-34.987,144.213-100.693l34.987-132.267L487.573,238.261z"/>
	<path d="M176.107,356.021c-64,0-122.88-42.667-139.947-107.52L0.32,116.234c-0.853-2.56,0-5.973,2.56-8.533
		c1.707-2.56,5.12-3.413,8.533-2.56l27.307,6.827c74.24,18.773,153.6-2.56,208.213-55.467l20.48-19.627
		c2.56-1.707,5.12-2.56,8.533-1.707c2.56,0.853,5.12,3.413,5.973,5.973l34.133,132.267c20.48,77.653-25.6,157.013-102.4,177.493l0,0
		C200.853,354.314,188.907,356.021,176.107,356.021z M211.093,343.221L211.093,343.221L211.093,343.221z M20.8,126.474
		l31.573,117.76c17.92,68.267,88.747,108.373,157.013,90.453l0,0c68.267-17.92,108.373-88.747,90.453-157.013l-31.573-117.76
		l-9.387,9.387C200,126.474,114.667,149.514,34.453,129.034L20.8,126.474z"/>
	<path d="M186.347,190.474c0,0-0.853,0-1.707,0c-4.267-0.853-7.68-5.12-6.827-9.387c3.413-22.187,14.507-35.84,32.427-40.96
		c17.92-5.12,34.987,1.707,48.64,18.773c2.56,3.413,2.56,9.387-1.707,11.947c-3.413,2.56-9.387,2.56-11.947-1.707
		c-9.387-11.947-18.773-16.213-30.72-12.8c-11.947,3.413-17.92,11.093-20.48,26.453C194.027,187.061,189.76,190.474,186.347,190.474
		z"/>
	<path d="M87.36,216.927c0,0-0.853,0-1.707,0c-4.267-0.853-7.68-5.12-6.827-9.387c3.413-22.187,14.507-35.84,32.427-40.96
		c17.92-5.12,34.987,1.707,48.64,18.773c2.56,3.413,2.56,9.387-1.707,11.947c-3.413,2.56-9.387,2.56-11.947-1.707
		c-9.387-11.947-18.773-16.213-30.72-12.8s-17.92,11.093-20.48,26.453C95.04,213.514,90.773,216.927,87.36,216.927z"/>
	<path d="M176.107,304.821c-20.48,0-40.96-6.827-58.027-20.48c-3.413-2.56-4.267-8.533-1.707-11.947
		c2.56-3.413,8.533-4.267,11.947-1.707c19.627,15.36,43.52,20.48,67.413,13.653c23.893-5.973,42.667-23.04,51.2-45.227
		c1.707-4.267,6.827-6.827,11.093-5.12c4.267,1.707,6.827,6.827,5.12,11.093c-11.093,27.307-34.133,47.787-63.147,55.467
		C192.32,303.967,183.787,304.821,176.107,304.821z"/>
	<path d="M303.253,302.261c-3.413,0-7.68-0.853-11.947-1.707c-3.413-0.853-5.12-1.707-7.68-2.56
		c-4.267-1.707-5.973-6.827-4.267-11.093s6.827-5.973,11.093-4.267c1.707,0.853,2.56,0.853,5.12,1.707
		c11.947,3.413,21.333-0.853,30.72-12.8c2.56-3.413,8.533-4.267,11.947-1.707c3.413,2.56,4.267,8.533,1.707,11.947
		C328.853,295.434,316.907,302.261,303.253,302.261z"/>
	<path d="M402.24,328.714c-3.413,0-7.68-0.853-11.947-1.707c-17.92-5.12-29.013-18.773-32.427-40.107
		c-0.853-4.267,2.56-9.387,6.827-9.387c4.267-0.853,9.387,2.56,9.387,6.827c2.56,15.36,8.533,23.893,20.48,26.453
		c11.947,3.413,21.333-0.853,30.72-12.8c2.56-3.413,8.533-4.267,11.947-1.707c3.413,2.56,4.267,8.533,1.707,11.947
		C427.84,321.887,415.893,328.714,402.24,328.714z"/>
	<path d="M382.613,431.114c-3.413,0-6.827-1.707-7.68-5.12c-9.387-23.04-28.16-39.253-51.2-45.227
		c-23.893-5.973-47.787-1.707-67.413,13.653c-3.413,2.56-9.387,2.56-11.947-1.707c-2.56-3.413-2.56-9.387,1.707-11.947
		c23.893-18.773,53.76-24.747,81.92-17.067c29.013,7.68,52.053,28.16,63.147,55.467c1.707,4.267,0,9.387-5.12,11.093
		C385.173,430.261,383.467,431.114,382.613,431.114z"/>
	<path d="M336.533,475.487c-12.8,0-25.6-1.707-37.547-5.12c-58.027-15.36-99.84-64.853-106.667-124.587
		c-0.853-4.267,2.56-8.533,6.827-9.387c3.413-0.853,6.827-0.853,9.387-1.707c53.76-14.507,91.307-61.44,94.72-116.907
		c0-2.56,1.707-5.12,4.267-6.827c2.56-1.707,5.973-1.707,8.533,0c52.053,26.453,111.787,33.28,168.107,18.773l1.707,8.533
		l-1.707-8.533l17.067-4.267c2.56-0.853,5.973,0,8.533,2.56c1.707,2.56,2.56,5.12,2.56,8.533l-34.987,132.267
		c-10.24,37.547-34.133,69.12-67.413,87.893C386.88,468.661,362.133,475.487,336.533,475.487z M210.24,351.754
		c8.533,49.493,44.373,88.747,93.013,102.4c33.28,8.533,67.413,4.267,97.28-12.8c29.867-17.067,51.2-44.373,59.733-77.653
		l31.573-117.76l-3.413,0.853c-56.32,14.507-116.053,9.387-168.96-15.36c-8.533,57.173-49.493,104.107-105.813,119.467
		C212.8,350.901,211.947,351.754,210.24,351.754z"/>
</g>
</svg>